<svg width="18" height="18" viewBox="0 0 18 18" fill="none" xmlns="http://www.w3.org/2000/svg">
<path d="M12.1878 2.32316C13.1312 2.32587 14.0351 2.68795 14.7022 3.3303C15.3692 3.97266 15.7452 4.84311 15.748 5.75154V12.6076C15.7452 13.516 15.3692 14.3864 14.7022 15.0288C14.0351 15.6712 13.1312 16.0332 12.1878 16.0359H5.06809C4.12472 16.0332 3.2208 15.6712 2.55373 15.0288C1.88667 14.3864 1.51067 13.516 1.50785 12.6076V5.75154C1.51067 4.84311 1.88667 3.97266 2.55373 3.3303C3.2208 2.68795 4.12472 2.32587 5.06809 2.32316H12.1878ZM12.1878 0.952026H5.06809C2.32678 0.952026 0.0839844 3.11175 0.0839844 5.75154V12.6076C0.0839844 15.2473 2.32678 17.4071 5.06809 17.4071H12.1878C14.9291 17.4071 17.1719 15.2473 17.1719 12.6076V5.75154C17.1719 3.11175 14.9291 0.952026 12.1878 0.952026Z" fill="white"/>
<path d="M13.2558 5.75207C13.0446 5.75207 12.8381 5.69176 12.6624 5.57875C12.4868 5.46574 12.3499 5.30512 12.2691 5.1172C12.1883 4.92928 12.1671 4.72249 12.2083 4.52299C12.2495 4.32349 12.3512 4.14024 12.5006 3.99641C12.65 3.85258 12.8403 3.75463 13.0474 3.71495C13.2546 3.67527 13.4693 3.69564 13.6645 3.77348C13.8596 3.85132 14.0264 3.98313 14.1438 4.15226C14.2612 4.32139 14.3238 4.52022 14.3238 4.72363C14.3241 4.85877 14.2967 4.99263 14.2431 5.11754C14.1895 5.24245 14.1109 5.35594 14.0117 5.4515C13.9124 5.54705 13.7946 5.6228 13.6649 5.67438C13.5351 5.72596 13.3961 5.75236 13.2558 5.75207ZM8.62794 6.43745C9.19124 6.43745 9.7419 6.59831 10.2103 6.89967C10.6786 7.20103 11.0437 7.62937 11.2593 8.13053C11.4748 8.63168 11.5312 9.18313 11.4213 9.71514C11.3114 10.2472 11.0402 10.7359 10.6419 11.1194C10.2435 11.503 9.73606 11.7642 9.18358 11.87C8.6311 11.9758 8.05844 11.9215 7.53801 11.7139C7.01759 11.5064 6.57277 11.1548 6.25982 10.7038C5.94686 10.2528 5.77983 9.72253 5.77983 9.18008C5.78063 8.45293 6.08096 7.75579 6.61491 7.24161C7.14886 6.72744 7.87282 6.43823 8.62794 6.43745ZM8.62794 5.06632C7.78302 5.06632 6.95708 5.30759 6.25455 5.75962C5.55203 6.21164 5.00448 6.85412 4.68114 7.60582C4.35781 8.35751 4.27321 9.18465 4.43804 9.98264C4.60288 10.7806 5.00975 11.5136 5.60719 12.089C6.20464 12.6643 6.96584 13.0561 7.79452 13.2148C8.6232 13.3735 9.48215 13.2921 10.2628 12.9807C11.0434 12.6693 11.7106 12.1421 12.18 11.4656C12.6494 10.7891 12.8999 9.99371 12.8999 9.18008C12.8999 8.08905 12.4498 7.0427 11.6487 6.27122C10.8475 5.49974 9.76094 5.06632 8.62794 5.06632Z" fill="white"/>
</svg>
